<svg width="507" height="627" viewBox="0 0 507 627" fill="none" xmlns="http://www.w3.org/2000/svg">
<path d="M136.351 208.215H109.699L140.396 287.455L156.578 259.138L136.351 208.215Z" fill="url(#paint0_linear_39_42)"/>
<path d="M351.229 152.056L368.838 120.408L398.82 208.215H371.693L351.229 152.056Z" fill="url(#paint1_linear_39_42)"/>
<path d="M136.351 208.215H109.937L179.66 26.4137H109.937L28.7931 207.501L95.1839 362.651L309.824 0.00012207H421.427L395.489 26.4137H324.815L116.362 380.022L85.1896 406.673L0 207.501L89.4729 0.00012207H215.829L136.351 208.215Z" fill="#84F4CC"/>
<path d="M85.1896 406.673L116.124 380.022H189.416L394.775 26.8894L421.427 0L506.378 206.311L427.138 406.673H297.926L371.693 207.977H398.82L335.761 380.022H410.005L478.537 206.311L413.574 48.0679L204.407 406.673H85.1896Z" fill="#84F4CC"/>
<path d="M28.6893 207.5L0.689282 208.5L78.7605 391.729L95.184 362.651L28.6893 207.5Z" fill="url(#paint2_linear_39_42)"/>
<path d="M413.574 48.0679L429.517 19.5127L506.189 206H478.689L413.574 48.0679Z" fill="url(#paint3_linear_39_42)"/>
<path d="M63.82 584V566.516H78.452V584H63.82ZM162.219 485.668H177.719V584H162.219V540.848H124.027V584H108.403V485.668H124.027V527.332H162.219V485.668ZM223.279 585.116C217.079 585.116 212.532 583.917 209.639 581.52C206.828 579.04 205.423 574.659 205.423 568.376V557.216C205.423 550.603 206.911 546.015 209.887 543.452C212.946 540.807 217.988 539.484 225.015 539.484H244.483V522.248C244.483 521.173 243.946 520.636 242.871 520.636L210.011 520.76V507.988H239.523C246.632 507.905 251.758 509.269 254.899 512.08C258.04 514.808 259.611 519.603 259.611 526.464V584H246.095L244.855 575.444C244.194 578.668 242.747 581.107 240.515 582.76C238.366 584.331 235.266 585.116 231.215 585.116H223.279ZM244.483 572.964V550.396H221.915C220.84 550.396 220.303 550.933 220.303 552.008V571.228C220.303 572.385 220.84 572.964 221.915 572.964H244.483ZM307.258 585.116C299.735 585.116 294.321 583.711 291.014 580.9C287.707 578.007 286.054 573.129 286.054 566.268V525.844C286.054 518.983 287.707 514.147 291.014 511.336C294.321 508.443 299.735 506.996 307.258 506.996H330.57V519.52H302.918C301.761 519.52 301.182 520.099 301.182 521.256V570.856C301.182 572.013 301.761 572.592 302.918 572.592H330.57V585.116H307.258ZM354.818 584V479.592H369.698V538.12H384.826C385.405 538.12 385.777 537.996 385.942 537.748C386.19 537.5 386.397 537.087 386.562 536.508L395.366 508.112H409.998L402.93 531.424C401.938 534.731 400.987 537.376 400.078 539.36C399.169 541.261 398.011 542.749 396.606 543.824C399.086 544.568 400.987 546.015 402.31 548.164C403.633 550.231 404.997 553.331 406.402 557.464L415.826 584H400.574L389.414 552.38C389.249 551.719 389.042 551.264 388.794 551.016C388.629 550.768 388.257 550.644 387.678 550.644H369.698V584H354.818Z" fill="#EDEDEF"/>
<defs>
<linearGradient id="paint0_linear_39_42" x1="124.689" y1="208" x2="148.189" y2="272.5" gradientUnits="userSpaceOnUse">
<stop stop-color="#84F4CC"/>
<stop offset="0.3" stop-color="#7ECAB3"/>
<stop offset="0.8" stop-color="#408070"/>
</linearGradient>
<linearGradient id="paint1_linear_39_42" x1="361.189" y1="143" x2="384.689" y2="208" gradientUnits="userSpaceOnUse">
<stop stop-color="#408070"/>
<stop offset="0.7" stop-color="#7ECAB3"/>
<stop offset="1" stop-color="#84F4CC"/>
</linearGradient>
<linearGradient id="paint2_linear_39_42" x1="14.6893" y1="209.5" x2="85.6893" y2="373.5" gradientUnits="userSpaceOnUse">
<stop stop-color="#84F4CC"/>
<stop offset="0.3" stop-color="#7ECAB3"/>
<stop offset="0.75" stop-color="#408070"/>
</linearGradient>
<linearGradient id="paint3_linear_39_42" x1="421.189" y1="35.5001" x2="491.189" y2="206" gradientUnits="userSpaceOnUse">
<stop offset="0.25" stop-color="#408070"/>
<stop offset="0.7" stop-color="#84F4CC"/>
<stop offset="1" stop-color="#7ECAB3"/>
</linearGradient>
</defs>
</svg>
