<svg width="1087" height="1087" viewBox="0 0 1087 1087" fill="none" xmlns="http://www.w3.org/2000/svg">
<circle cx="543.5" cy="543.5" r="543.5" fill="#1E1E1E"/>
<path d="M426.351 476.215H399.699L430.396 555.455L446.578 527.138L426.351 476.215Z" fill="url(#paint0_linear_39_43)"/>
<path d="M641.229 420.056L658.838 388.408L688.82 476.215H661.693L641.229 420.056Z" fill="url(#paint1_linear_39_43)"/>
<path d="M426.351 476.215H399.937L469.66 294.414H399.937L318.793 475.501L385.184 630.651L599.824 268H711.427L685.489 294.414H614.815L406.362 648.022L375.19 674.673L290 475.501L379.473 268H505.829L426.351 476.215Z" fill="#84F4CC"/>
<path d="M375.19 674.673L406.124 648.022H479.416L684.775 294.889L711.427 268L796.378 474.311L717.138 674.673H587.926L661.693 475.977H688.82L625.761 648.022H700.005L768.537 474.311L703.574 316.068L494.407 674.673H375.19Z" fill="#84F4CC"/>
<path d="M318.689 475.5L290.689 476.5L368.76 659.729L385.184 630.651L318.689 475.5Z" fill="url(#paint2_linear_39_43)"/>
<path d="M703.574 316.068L719.517 287.513L796.189 474H768.689L703.574 316.068Z" fill="url(#paint3_linear_39_43)"/>
<path d="M353.82 852V834.516H368.452V852H353.82ZM452.219 753.668H467.719V852H452.219V808.848H414.027V852H398.403V753.668H414.027V795.332H452.219V753.668ZM513.279 853.116C507.079 853.116 502.532 851.917 499.639 849.52C496.828 847.04 495.423 842.659 495.423 836.376V825.216C495.423 818.603 496.911 814.015 499.887 811.452C502.946 808.807 507.988 807.484 515.015 807.484H534.483V790.248C534.483 789.173 533.946 788.636 532.871 788.636L500.011 788.76V775.988H529.523C536.632 775.905 541.758 777.269 544.899 780.08C548.04 782.808 549.611 787.603 549.611 794.464V852H536.095L534.855 843.444C534.194 846.668 532.747 849.107 530.515 850.76C528.366 852.331 525.266 853.116 521.215 853.116H513.279ZM534.483 840.964V818.396H511.915C510.84 818.396 510.303 818.933 510.303 820.008V839.228C510.303 840.385 510.84 840.964 511.915 840.964H534.483ZM597.258 853.116C589.735 853.116 584.321 851.711 581.014 848.9C577.707 846.007 576.054 841.129 576.054 834.268V793.844C576.054 786.983 577.707 782.147 581.014 779.336C584.321 776.443 589.735 774.996 597.258 774.996H620.57V787.52H592.918C591.761 787.52 591.182 788.099 591.182 789.256V838.856C591.182 840.013 591.761 840.592 592.918 840.592H620.57V853.116H597.258ZM644.818 852V747.592H659.698V806.12H674.826C675.405 806.12 675.777 805.996 675.942 805.748C676.19 805.5 676.397 805.087 676.562 804.508L685.366 776.112H699.998L692.93 799.424C691.938 802.731 690.987 805.376 690.078 807.36C689.169 809.261 688.011 810.749 686.606 811.824C689.086 812.568 690.987 814.015 692.31 816.164C693.633 818.231 694.997 821.331 696.402 825.464L705.826 852H690.574L679.414 820.38C679.249 819.719 679.042 819.264 678.794 819.016C678.629 818.768 678.257 818.644 677.678 818.644H659.698V852H644.818Z" fill="#EDEDEF"/>
<defs>
<linearGradient id="paint0_linear_39_43" x1="414.689" y1="476" x2="438.189" y2="540.5" gradientUnits="userSpaceOnUse">
<stop stop-color="#84F4CC"/>
<stop offset="0.3" stop-color="#7ECAB3"/>
<stop offset="0.8" stop-color="#408070"/>
</linearGradient>
<linearGradient id="paint1_linear_39_43" x1="651.189" y1="411" x2="674.689" y2="476" gradientUnits="userSpaceOnUse">
<stop stop-color="#408070"/>
<stop offset="0.7" stop-color="#7ECAB3"/>
<stop offset="1" stop-color="#84F4CC"/>
</linearGradient>
<linearGradient id="paint2_linear_39_43" x1="304.689" y1="477.5" x2="375.689" y2="641.5" gradientUnits="userSpaceOnUse">
<stop stop-color="#84F4CC"/>
<stop offset="0.3" stop-color="#7ECAB3"/>
<stop offset="0.75" stop-color="#408070"/>
</linearGradient>
<linearGradient id="paint3_linear_39_43" x1="711.189" y1="303.5" x2="781.189" y2="474" gradientUnits="userSpaceOnUse">
<stop offset="0.25" stop-color="#408070"/>
<stop offset="0.7" stop-color="#84F4CC"/>
<stop offset="1" stop-color="#7ECAB3"/>
</linearGradient>
</defs>
</svg>
